<svg width="512" height="512" viewBox="0 0 512 512" fill="none" xmlns="http://www.w3.org/2000/svg">
  <rect width="512" height="512" rx="256" fill="#E84118" />
  <path d="M256 111C191.05 111 138 164.05 138 229C138 271.03 170.96 324.78 236.89 390.14C245.38 398.58 259.62 398.58 268.11 390.14C334.04 324.78 367 271.03 367 229C367 164.05 320.95 111 256 111ZM256 271.5C232.98 271.5 214.5 253.02 214.5 230C214.5 206.98 232.98 188.5 256 188.5C279.02 188.5 297.5 206.98 297.5 230C297.5 253.02 279.02 271.5 256 271.5Z" fill="white" />
  <path d="M220 180V242H238V180H220ZM256 180V242H274V180H256ZM291 180V242H309V180H291Z" fill="#E84118" />
</svg>